<?xml version="1.0" encoding="UTF-8"?>
<svg width="93px" height="61px" viewBox="0 0 93 61" version="1.1" xmlns="http://www.w3.org/2000/svg" xmlns:xlink="http://www.w3.org/1999/xlink">
    <g id="Page-1" stroke="none" stroke-width="1" fill="none" fill-rule="evenodd">
        <g id="source0" transform="translate(-10.000000, 0.000000)" fill="#000000" fill-rule="nonzero">
            <g id="Group" transform="translate(417.000000, 370.500000) scale(-1, 1) rotate(-180.000000) translate(-417.000000, -370.500000) ">
                <path d="M102.393398,680.74696 L79.8605208,680.74696 L53.8024265,692.74696 L21.6129454,692.74696 L21.6129454,680.74696 L10.116595,680.74696 L10.116595,704.74696 L56.2552212,704.74696 L102.393398,680.74696 Z M102.700147,680.74696 L80.1672701,680.74696 L54.1091758,692.74696 L21.9196946,692.74696 L21.9196946,680.74696 L10.4233443,680.74696 L10.4233443,704.74696 L57.9414425,704.74696 L102.700147,680.74696 Z M102.700147,680.74696 L80.1672701,680.74696 L54.1091758,692.74696 L21.9196946,692.74696 L21.9196946,680.74696 L10.4233443,680.74696 L10.4233443,704.74696 L57.9414425,704.74696 L102.700147,680.74696 Z M10.2696698,716.74696 L56.2547714,716.74696 L102.393398,740.74696 L79.8605208,740.74696 L53.8024265,728.74696 L21.7658702,728.74696 L21.7658702,740.74696 L10.2696698,740.74696 L10.2696698,716.74696 Z" id="Shape"></path>
            </g>
        </g>
    </g>
</svg>
