<?xml version="1.0" encoding="UTF-8"?>
<svg width="66px" height="60px" viewBox="0 0 66 60" version="1.1" xmlns="http://www.w3.org/2000/svg" xmlns:xlink="http://www.w3.org/1999/xlink">
    <g id="Page-1" stroke="none" stroke-width="1" fill="none" fill-rule="evenodd">
        <g id="Group" transform="translate(-126.000000, 0.000000)" fill="#000000" fill-rule="nonzero">
            <g id="ampersand" transform="translate(126.666667, 0.000000)">
                <path d="M19.3278,59.638675 C14.49585,44.8885083 4.83195,15.3881833 0,0.638016667 C2.28881667,0.638016667 6.86645833,0.638016667 9.155275,0.638016667 C12.9699667,12.2855667 20.5993667,35.58065 24.4140667,47.2281917 C28.2287583,35.58065 35.8581583,12.2855667 39.67285,0.638016667 C46.0306833,0.638016667 58.7463417,0.638016667 65.1041667,0.638016667 C65.1041667,2.672525 65.1041667,6.74153333 65.1041667,8.77604167 C63.0696583,8.77604167 59.00065,8.77604167 56.96615,8.77604167 C56.96615,19.4571917 56.96615,40.8195 56.96615,51.50065 C59.00065,51.50065 63.0696583,51.50065 65.1041667,51.50065 C65.1041667,53.5351583 65.1041667,57.6041667 65.1041667,59.638675 C53.660075,59.638675 30.7718917,59.638675 19.3278,59.638675 Z M48.828125,51.50065 C48.828125,40.8195 48.828125,19.4571917 48.828125,8.77604167 C48.3805333,8.77604167 47.48535,8.77604167 47.0377583,8.77604167 C43.3553083,19.4571917 35.9904,40.8195 32.3079417,51.50065 C36.4379917,51.50065 44.6980833,51.50065 48.828125,51.50065 Z" id="path_&amp;_0"></path>
            </g>
        </g>
    </g>
</svg>
