<?xml version="1.0" encoding="UTF-8"?>
<svg width="61px" height="103px" viewBox="0 0 61 55.35" version="1.1" xmlns="http://www.w3.org/2000/svg" xmlns:xlink="http://www.w3.org/1999/xlink">
    <g id="Page-1" stroke="none" stroke-width="1" fill="none" fill-rule="evenodd">
        <path d="M25.797525,47.2070333 C27.4861667,47.2070333 30.8634417,47.2070333 32.5520833,47.2070333 C32.5520833,49.2415417 32.5520833,53.31055 32.5520833,55.3450583 C30.944825,55.3450583 27.7303083,55.3450583 26.12305,55.3450583 C27.2216833,56.4436917 29.4189417,58.6409583 30.517575,59.7395833 C29.08325,61.1840833 26.2146,64.0730833 24.780275,65.5175833 C23.6714667,64.408775 21.4538583,62.1911667 20.34505,61.0823583 C20.34505,62.6997917 20.34505,65.9346583 20.34505,67.5520833 C18.31055,67.5520833 14.2415333,67.5520833 12.2070333,67.5520833 C12.2070333,65.8736167 12.2070333,62.5166833 12.2070333,60.8382167 C11.0270167,62.0080583 8.66699167,64.3477417 7.48698333,65.5175833 C6.05265,64.0730833 3.184,61.1840833 1.749675,59.7395833 C2.84830833,58.6409583 5.045575,56.4436917 6.14420833,55.3450583 C4.60815833,55.3450583 1.53605,55.3450583 0,55.3450583 C0,53.31055 0,49.2415417 0,47.2070333 C1.61743333,47.2070333 4.85229167,47.2070333 6.469725,47.2070333 C5.28971667,46.027025 2.92968333,43.667 1.749675,42.4869833 C3.184,41.0526583 6.05265,38.1840083 7.48698333,36.749675 C8.66699167,37.9195167 11.0270167,40.2592 12.2070333,41.4290417 C12.2070333,39.8217833 12.2070333,36.6072667 12.2070333,35 C14.2415333,35 18.31055,35 20.34505,35 C20.34505,36.546225 20.34505,39.638675 20.34505,41.1849 C21.4538583,40.0760917 23.6714667,37.8584833 24.780275,36.749675 C26.2146,38.1840083 29.08325,41.0526583 30.517575,42.4869833 C29.3375667,43.667 26.9775417,46.027025 25.797525,47.2070333 Z" id="path_*_0" fill="#000000"></path>
    </g>
</svg>