<?xml version="1.0" encoding="UTF-8"?>
<svg width="45px" height="61px" viewBox="0 0 45 61" version="1.1" xmlns="http://www.w3.org/2000/svg" xmlns:xlink="http://www.w3.org/1999/xlink">
    <g id="Page-1" stroke="none" stroke-width="1" fill="none" fill-rule="evenodd">
        <g id="source0" transform="translate(-189.000000, 0.000000)" fill="#000000" fill-rule="nonzero">
            <g id="Group" transform="translate(417.000000, 370.500000) scale(-1, 1) rotate(-180.000000) translate(-417.000000, -370.500000) ">
                <path d="M201.828132,700.172355 L189.796,700.172355 L189.796,740.76 L201.828132,740.76 L201.828132,700.172355 Z M217.870974,700.011697 L205.838842,700.011697 L205.838842,721.668961 L217.870974,721.668961 L217.870974,700.011697 Z M217.870974,700.011697 L205.838842,700.011697 L205.838842,721.668961 L217.870974,721.668961 L217.870974,700.011697 Z M217.870974,700.011697 L205.838842,700.011697 L205.838842,721.668961 L217.870974,721.668961 L217.870974,700.011697 Z M233.913816,680.76 L221.881684,680.76 L221.881684,721.668961 L233.913816,721.668961 L233.913816,680.76 Z" id="Shape"></path>
            </g>
        </g>
    </g>
</svg>
