<?xml version="1.0" encoding="UTF-8"?>
<svg width="45px" height="103px" viewBox="0 0 45 103" version="1.1" xmlns="http://www.w3.org/2000/svg" xmlns:xlink="http://www.w3.org/1999/xlink">
    <g id="Page-1" stroke="none" stroke-width="1" fill="none" fill-rule="evenodd">
        <path d="M44.7591167,64.448575 C33.5693333,64.448575 11.189775,64.448575 -2.84217094e-14,64.448575 C-2.84217094e-14,62.4140667 -2.84217094e-14,58.3450583 -2.84217094e-14,56.31055 C11.189775,56.31055 33.5693333,56.31055 44.7591167,56.31055 C44.7591167,58.3450583 44.7591167,62.4140667 44.7591167,64.448575 Z M44.7591167,46.138025 C33.5693333,46.138025 11.189775,46.138025 -2.84217094e-14,46.138025 C-2.84217094e-14,44.1035167 -2.84217094e-14,40.0345083 -2.84217094e-14,38 C11.189775,38 33.5693333,38 44.7591167,38 C44.7591167,40.0345083 44.7591167,44.1035167 44.7591167,46.138025 Z" id="path_=_0" fill="#000000" fill-rule="nonzero"></path>
    </g>
</svg>
