<?xml version="1.0" encoding="UTF-8"?>
<svg width="85px" height="61px" viewBox="0 0 85 61" version="1.1" xmlns="http://www.w3.org/2000/svg" xmlns:xlink="http://www.w3.org/1999/xlink">
    <g id="Page-1" stroke="none" stroke-width="1" fill="none" fill-rule="evenodd">
        <g id="source0" transform="translate(-687.000000, 0.000000)" fill="#000000" fill-rule="nonzero">
            <g id="Group" transform="translate(417.000000, 370.500000) scale(-1, 1) rotate(-180.000000) translate(-417.000000, -370.500000) translate(0.000000, -0.000000)">
                <path d="M771.600038,728.169016 L766.639977,725.609584 L759.599752,722.729687 L754.320656,720.969989 L748.719664,719.370523 L741.679439,717.929859 L735.60061,716.80966 L735.60061,692.650286 L771.601468,692.650286 L771.601468,680.65 L687.279,680.65 L687.279,725.93005 L696.078924,725.93005 L707.279477,726.250515 L717.199599,727.050248 L723.279858,727.849981 L723.279858,740.65 L735.599179,740.65 L735.599179,729.130412 L741.039939,730.090378 L747.599465,731.529611 L753.99876,733.449542 L759.279286,735.209241 L765.999046,737.928905 L771.600038,740.648569 L771.600038,728.169016 Z M699.117623,713.607867 L699.117623,692.807658 L723.118195,692.807658 L723.118195,715.207333 L717.358401,714.567833 L710.798874,714.088566 L705.358115,713.7681 L699.117623,713.607867 Z" id="Shape"></path>
            </g>
        </g>
    </g>
</svg>
