<?xml version="1.0" encoding="UTF-8"?>
<svg width="58px" height="60px" viewBox="0 0 58 60" version="1.1" xmlns="http://www.w3.org/2000/svg" xmlns:xlink="http://www.w3.org/1999/xlink">
    <g id="Page-1" stroke="none" stroke-width="1" fill="none" fill-rule="evenodd">
	    <g id="Group" transform="translate(-8.000000, 0.000000)" fill="#000000" fill-rule="nonzero">
	        <g id="hash-pound" transform="translate(8.333333, 0.000000)">
	            <path d="M0,25.0520833 C6.10351667,25.0520833 18.31055,25.0520833 24.4140667,25.0520833 C24.4140667,18.9485667 24.4140667,6.74153333 24.4140667,0.638016667 C22.3795583,0.638016667 18.31055,0.638016667 16.2760417,0.638016667 C16.2760417,4.70703333 16.2760417,12.84505 16.2760417,16.9140583 C12.2070333,16.9140583 4.06900833,16.9140583 0,16.9140583 C0,18.9485667 0,23.017575 0,25.0520833 Z M0,35.2246083 C6.10351667,35.2246083 18.31055,35.2246083 24.4140667,35.2246083 C24.4140667,41.328125 24.4140667,53.5351583 24.4140667,59.638675 C22.3795583,59.638675 18.31055,59.638675 16.2760417,59.638675 C16.2760417,55.5696583 16.2760417,47.4316417 16.2760417,43.3626333 C12.2070333,43.3626333 4.06900833,43.3626333 0,43.3626333 C0,41.328125 0,37.2591167 0,35.2246083 Z M56.96615,25.0520833 C56.96615,23.017575 56.96615,18.9485667 56.96615,16.9140583 C52.8971333,16.9140583 44.7591167,16.9140583 40.6901,16.9140583 C40.6901,12.84505 40.6901,4.70703333 40.6901,0.638016667 C38.6556,0.638016667 34.5865917,0.638016667 32.5520833,0.638016667 C32.5520833,6.74153333 32.5520833,18.9485667 32.5520833,25.0520833 C38.6556,25.0520833 50.8626333,25.0520833 56.96615,25.0520833 Z M56.96615,35.2246083 C50.8626333,35.2246083 38.6556,35.2246083 32.5520833,35.2246083 C32.5520833,41.328125 32.5520833,53.5351583 32.5520833,59.638675 C34.5865917,59.638675 38.6556,59.638675 40.6901,59.638675 C40.6901,55.5696583 40.6901,47.4316417 40.6901,43.3626333 C44.7591167,43.3626333 52.8971333,43.3626333 56.96615,43.3626333 C56.96615,41.328125 56.96615,37.2591167 56.96615,35.2246083 Z" id="path_#_0"></path>
	        </g>
	    </g>
	</g>
</svg>
