<?xml version="1.0" encoding="UTF-8"?>
<svg width="89px" height="61px" viewBox="0 0 89 61" version="1.1" xmlns="http://www.w3.org/2000/svg" xmlns:xlink="http://www.w3.org/1999/xlink">
    <g id="Page-1" stroke="none" stroke-width="1" fill="none" fill-rule="evenodd">
        <g id="source0" transform="translate(-432.000000, -314.000000)" fill="#000000" fill-rule="nonzero">
            <g id="Group" transform="translate(425.000000, 370.500000) scale(-1, 1) rotate(-180.000000) translate(-425.000000, -370.500000) translate(0.000000, -0.000000)">
                <path d="M520.757288,426.784 L493.513265,366.784 L448.054649,366.864008 L448.054649,382.842672 L460.038648,382.842672 L460.038648,378.848006 L485.60394,378.848006 L502.541267,414.800002 L460.038648,414.800002 L460.038648,410.805335 L448.054649,410.805335 L448.054649,426.784 L520.757288,426.784 Z M443.101321,426.703992 L443.101321,410.725328 L432.236,410.725328 L432.236,426.703992 L443.101321,426.703992 Z M443.261336,382.842672 L443.261336,366.864008 L432.396015,366.864008 L432.396015,382.842672 L443.261336,382.842672 Z" id="Shape"></path>
                <polygon id="Path" points="573.216445 366.84 543.536049 366.84 517.845 398.435168 531.408207 398.435168 552.472128 373.222098 552.472128 426.84 564.440168 426.84 564.440168 373.541703 585.184484 398.435168 598.58789 398.435168"></polygon>
            </g>
        </g>
    </g>
</svg>
