<?xml version="1.0" encoding="UTF-8"?>
<svg width="75px" height="61px" viewBox="0 0 75 61" version="1.1" xmlns="http://www.w3.org/2000/svg" xmlns:xlink="http://www.w3.org/1999/xlink">
    <g id="Page-1" stroke="none" stroke-width="1" fill="none" fill-rule="evenodd">
        <g id="source0" transform="translate(-604.000000, 0.000000)" fill="#000000" fill-rule="nonzero">
            <g id="Group" transform="translate(425.000000, 370.500000) scale(-1, 1) rotate(-180.000000) translate(-425.000000, -370.500000) translate(0.000000, -0.000000)">
                <path d="M607.460675,692.760572 L610.500877,680.76 L671.623964,680.76 L674.50393,692.760572 L607.460675,692.760572 Z M607.140202,694.360076 L604.1,706.360649 L608.739706,709.400851 L612.57966,713.401042 L616.419615,718.040748 L619.620053,723.000927 L621.859073,728.600622 L623.460008,734.200317 L624.739039,740.76 L658.021026,740.76 L658.981015,735.641015 L660.580519,729.240137 L662.820969,723.319969 L666.019977,717.720275 L669.859931,713.080568 L673.539649,709.719893 L678.180786,706.360649 L674.820111,694.360076 L669.220416,698.200031 L663.620721,703.320446 L657.86079,710.200603 L654.179641,715.800298 L651.620149,721.241187 L650.339687,725.081141 L649.539935,728.760858 L632.899657,728.760858 L631.619195,724.760668 L630.179928,720.120961 L627.779241,715.961965 L623.620244,709.721324 L618.179355,703.801156 L612.57966,698.520504 L607.140202,694.360076 Z" id="Shape"></path>
            </g>
        </g>
    </g>
</svg>
