<?xml version="1.0" encoding="UTF-8"?>
<svg width="69px" height="61px" viewBox="0 0 69 61" version="1.1" xmlns="http://www.w3.org/2000/svg" xmlns:xlink="http://www.w3.org/1999/xlink">
    <g id="Page-1" stroke="none" stroke-width="1" fill="none" fill-rule="evenodd">
        <g id="source0" transform="translate(-606.000000, -314.000000)" fill="#000000" fill-rule="nonzero">
            <g id="Group" transform="translate(425.000000, 370.500000) scale(-1, 1) rotate(-180.000000) translate(-425.000000, -370.500000) translate(0.000000, -0.000000)">
                <path d="M673.637458,367.639733 L672.357027,367.159035 L670.437095,366.84 L610.435665,366.84 L608.356931,367.080349 L607.156617,367.559617 L606.597233,368.759931 L606.437,370.838665 L606.437,422.839905 L606.677349,424.759836 L607.236733,425.960151 L608.276815,426.599651 L610.437095,426.84 L670.438526,426.84 L672.677492,426.679767 L673.717574,426.2005 L674.198272,425.080301 L674.437191,422.841335 L674.437191,370.840095 L674.278389,368.679815 L673.637458,367.639733 Z M662.436905,378.680053 L662.436905,414.841145 L618.435855,414.841145 L618.435855,402.840858 L638.436332,402.840858 L638.436332,390.840572 L618.435855,390.840572 L618.435855,378.680053 L662.436905,378.680053 Z" id="Shape"></path>
            </g>
        </g>
    </g>
</svg>
