<?xml version="1.0" encoding="UTF-8"?>
<svg width="70px" height="61px" viewBox="0 0 70 61" version="1.1" xmlns="http://www.w3.org/2000/svg" xmlns:xlink="http://www.w3.org/1999/xlink">
    <g id="Page-1" stroke="none" stroke-width="1" fill="none" fill-rule="evenodd">
        <g id="source0" transform="translate(-519.000000, 0.000000)" fill="#000000" fill-rule="nonzero">
            <g id="Group" transform="translate(425.000000, 370.500000) scale(-1, 1) rotate(-180.000000) translate(-425.000000, -370.500000) translate(0.000000, -0.000000)">
                <polygon id="Path" points="520.484916 681.928401 522.084343 680.968458 524.004229 680.648 584.004229 680.648 586.084343 680.888343 587.284629 681.36903 587.844 682.567886 588.004229 684.648 588.004229 736.648 587.763886 738.567886 587.203084 739.768172 586.164458 740.407657 584.004229 740.648 524.004229 740.648 521.763886 740.487771 520.723828 740.008515 520.244572 738.888343 520.004229 736.648 520.004229 716.808229 532.164458 716.808229 532.164458 728.808229 576.004229 728.808229 576.004229 716.808229 554.084343 716.808229 554.084343 704.808229 576.004229 704.808229 576.004229 692.808229 532.004229 692.808229 532.004229 704.808229 519.844 704.808229 519.844 684.968458 520.164458 683.208801"></polygon>
            </g>
        </g>
    </g>
</svg>
