<?xml version="1.0" encoding="UTF-8"?>
<svg width="56px" height="61px" viewBox="0 0 56 61" version="1.1" xmlns="http://www.w3.org/2000/svg" xmlns:xlink="http://www.w3.org/1999/xlink">
    <g id="Page-1" stroke="none" stroke-width="1" fill="none" fill-rule="evenodd">
        <g id="source0" transform="translate(-18.000000, -314.000000)" fill="#000000" fill-rule="nonzero">
            <g id="Group" transform="translate(425.000000, 370.500000) scale(-1, 1) rotate(-180.000000) translate(-425.000000, -370.500000) translate(0.000000, -0.000000)">
                <path d="M19.5074948,367.720238 L18.9477084,368.919065 L18.7078,370.838905 L18.7078,422.67887 L19.0276779,424.757505 L19.4275253,426.037875 L20.6273537,426.677344 L22.7071324,426.837569 L42.7066555,426.837569 L42.7066555,414.837856 L30.7070847,414.837856 L30.7070847,378.838714 L42.7066555,378.838714 L42.7066555,366.839 L23.0274395,366.839 L20.6276398,367.079338 L19.5074948,367.720238 Z M49.7471171,366.840431 L49.7471171,378.840144 L61.746688,378.840144 L61.746688,414.839286 L49.7471171,414.839286 L49.7471171,426.839 L69.7466403,426.839 L71.826419,426.678775 L73.0261043,426.19953 L73.5860337,424.839048 L73.7456866,422.839095 L73.7456866,370.840335 L73.5860337,368.601476 L72.8661653,367.721669 L71.7464495,367.160881 L69.7466403,366.841861 L49.7471171,366.840431 Z" id="Shape"></path>
            </g>
        </g>
    </g>
</svg>
