<?xml version="1.0" encoding="UTF-8"?>
<svg width="79px" height="61px" viewBox="0 0 79 61" version="1.1" xmlns="http://www.w3.org/2000/svg" xmlns:xlink="http://www.w3.org/1999/xlink">
    <g id="Page-1" stroke="none" stroke-width="1" fill="none" fill-rule="evenodd">
        <g id="source0" transform="translate(-604.000000, -157.000000)" fill="#000000" fill-rule="nonzero">
            <g id="Group" transform="translate(423.500000, 370.500000) scale(-1, 1) rotate(-180.000000) translate(-423.500000, -370.500000) translate(0.000000, -0.000000)">
                <polygon id="Path" points="682.469313 523.8 670.469027 523.8 648.708851 570.520713 627.108908 523.8 614.94839 523.8 613.348924 526.038966 611.90826 528.439596 609.988329 531.79876 608.388863 535.638623 606.789397 539.638718 605.829431 544.279744 604.869465 549.55884 604.549 554.999599 604.869465 560.438928 605.348733 565.398989 606.308699 570.198817 607.428897 573.878447 609.028363 577.239042 610.627829 580.118939 612.54776 582.518138 613.667958 583.798569 625.028744 583.798569 623.107382 581.878638 621.507917 579.478009 619.908451 576.598112 618.62945 573.718215 617.509252 570.198817 616.549286 565.559222 615.749553 560.438928 615.429088 555.318634 615.749553 550.19834 616.709519 544.757581 617.988519 540.598684 619.26895 538.037822 620.868416 535.798855 642.788825 583.8 654.789111 583.8"></polygon>
            </g>
        </g>
    </g>
</svg>