<?xml version="1.0" encoding="UTF-8"?>
<svg width="81px" height="61px" viewBox="0 0 81 61" version="1.1" xmlns="http://www.w3.org/2000/svg" xmlns:xlink="http://www.w3.org/1999/xlink">
    <g id="Page-1" stroke="none" stroke-width="1" fill="none" fill-rule="evenodd">
        <g id="source0" transform="translate(-11.000000, -471.000000)" fill="#000000" fill-rule="nonzero">
            <g id="Group" transform="translate(425.000000, 370.500000) scale(-1, 1) rotate(-180.000000) translate(-425.000000, -370.500000) translate(0.000000, -0.000000)">
                <path d="M90.797587,269.081267 L91.2774268,268.121301 L91.597463,265.880905 L91.597463,213.56063 L91.3574001,211.640699 L90.8775603,210.600617 L89.7577911,210.200035 L87.5977968,209.881 L15.7563128,209.881 L13.5163452,210.121349 L12.396576,210.760849 L11.9165932,212.03985 L11.5967,213.881095 L11.5967,265.880905 L11.8366199,267.72215 L12.3166027,269.081267 L13.4363719,269.720767 L15.5962231,269.881 L87.5977968,269.881 L89.8377644,269.560535 L90.797587,269.081267 Z M79.5971769,221.879855 L79.5971769,257.880714 L23.5961277,257.880714 L23.5961277,221.879855 L79.5971769,221.879855 Z" id="Shape"></path>
            </g>
        </g>
    </g>
</svg>
