<?xml version="1.0" encoding="UTF-8"?>
<svg width="50px" height="61px" viewBox="0 0 50 61" version="1.1" xmlns="http://www.w3.org/2000/svg" xmlns:xlink="http://www.w3.org/1999/xlink">
    <g id="Page-1" stroke="none" stroke-width="1" fill="none" fill-rule="evenodd">
        <g id="source0" transform="translate(-103.000000, -314.000000)" fill="#000000" fill-rule="nonzero">
            <g id="Group" transform="translate(425.000000, 370.500000) scale(-1, 1) rotate(-180.000000) translate(-425.000000, -370.500000) translate(0.000000, -0.000000)">
                <polygon id="Path" points="152.867199 426.84 152.867199 366.84 113.827142 366.84 112.227714 369.080343 110.787084 371.479485 108.867199 374.84 107.267771 378.679771 105.668343 382.679771 104.708401 387.319256 103.748458 392.598226 103.428 398.038856 103.748458 403.478054 104.229144 408.437997 105.187657 413.237711 106.307828 416.917253 107.907256 420.277768 109.506684 423.157597 111.428 425.556738 112.546741 426.837139 127.106112 426.837139 128.865768 426.596795 129.905825 426.117539 130.546741 424.997368 130.625425 423.39794 130.625425 414.837139 118.785654 414.837139 118.785654 419.636853 117.506684 416.757024 116.386512 413.237711 115.426569 408.598226 114.626856 403.478054 114.306398 398.357883 114.626856 393.237711 115.586798 387.798512 116.865768 383.638283 118.146169 381.078913 119.745597 378.838569 140.865768 378.838569 140.865768 426.838569"></polygon>
            </g>
        </g>
    </g>
</svg>
