<?xml version="1.0" encoding="UTF-8"?>
<svg width="66px" height="60px" viewBox="0 0 66 60" version="1.1" xmlns="http://www.w3.org/2000/svg" xmlns:xlink="http://www.w3.org/1999/xlink">
    <g id="Page-1" stroke="none" stroke-width="1" fill="none" fill-rule="evenodd">
        <g id="Group" transform="translate(0.000000, -120.000000)" fill="#000000" fill-rule="nonzero">
            <g id="percentage" transform="translate(0.000000, 120.000000)">
                <path d="M14.2415333,33.1901 C15.2587917,33.1901 17.2932917,33.1901 18.31055,33.1901 C22.3524333,33.1901 24.373375,29.1210917 24.373375,20.983075 C24.373375,12.8450528 22.3388694,8.77604167 18.2698583,8.77604167 C16.9135167,8.77604167 15.2181,8.77604167 14.20085,8.77604167 C10.4844833,8.77604167 8.46353889,12.1668833 8.13801667,18.9485667 C8.13801667,28.4429222 10.1725222,33.1901 14.2415333,33.1901 Z M12.2070333,16.9140583 C14.2415333,16.9140583 18.31055,16.9140583 20.34505,16.9140583 C20.34505,18.9485667 20.34505,23.017575 20.34505,25.0520833 C18.31055,25.0520833 14.2415333,25.0520833 12.2070333,25.0520833 C12.2070333,23.017575 12.2070333,18.9485667 12.2070333,16.9140583 L12.2070333,16.9140583 Z M46.7936167,51.50065 C47.810875,51.50065 49.845375,51.50065 50.8626333,51.50065 C54.9045167,51.50065 56.9254583,47.4316389 56.9254583,39.2936167 C56.9254583,31.1556 54.8909528,27.0865917 50.8219417,27.0865917 C49.4656,27.0865917 47.7701833,27.0865917 46.7529333,27.0865917 C43.0365667,27.0865917 41.0156222,30.4774333 40.6901,37.2591167 C40.6901,46.7534722 42.7246056,51.50065 46.7936167,51.50065 Z M44.7591167,35.2246083 C46.7936167,35.2246083 50.8626333,35.2246083 52.8971333,35.2246083 C52.8971333,37.2591167 52.8971333,41.328125 52.8971333,43.3626333 C50.8626333,43.3626333 46.7936167,43.3626333 44.7591167,43.3626333 C44.7591167,41.328125 44.7591167,37.2591167 44.7591167,35.2246083 Z M24.4140667,40.717775 C23.7630222,40.9890417 23.0848528,41.1924917 22.3795583,41.328125 C18.31055,41.328125 13.2242833,41.328125 10.172525,41.328125 C3.39084167,39.9717861 0,32.5119333 0,18.9485667 C0.35265,8.01649444 3.72992778,1.91297778 10.1318333,0.638016667 C14.20085,0.638016667 19.2871083,0.638016667 22.3388667,0.638016667 C29.12055,1.99435556 32.5249556,8.77604167 32.5520833,20.983075 C32.5520833,14.2013917 32.5520833,5.72428333 32.5520833,0.638016667 C34.5865917,0.638016667 38.6556,0.638016667 40.6901,0.638016667 C40.6901,5.36824167 40.6901,14.8286917 40.6901,19.5589167 C41.3140167,19.28765 41.9786222,19.0842 42.6839167,18.9485667 C46.7529333,18.9485667 51.8391917,18.9485667 54.89095,18.9485667 C61.6726333,20.3049056 65.0770389,27.0865889 65.1041667,39.2936167 C65.1041667,51.50065 61.713325,58.2823361 54.9316417,59.638675 C50.8626333,59.638675 45.7763667,59.638675 42.7246083,59.638675 C36.2684472,58.3365917 32.8911694,51.5413417 32.592775,39.252925 C32.5792083,39.2664917 32.5622583,39.28345 32.5520833,39.2936167 C32.5520833,44.3798833 32.5520833,54.5524083 32.5520833,59.638675 C30.517575,59.638675 26.4485667,59.638675 24.4140667,59.638675 C24.4140667,54.90845 24.4140667,45.448 24.4140667,40.717775 Z" id="path_%_0"></path>
            </g>
        </g>
    </g>
</svg>
