<?xml version="1.0" encoding="UTF-8"?>
<svg width="45px" height="103px" viewBox="0 0 45 103" version="1.1" xmlns="http://www.w3.org/2000/svg" xmlns:xlink="http://www.w3.org/1999/xlink">
    <g id="Page-1" stroke="none" stroke-width="1" fill="none" fill-rule="evenodd">
        <path d="M26.4485667,55.4485667 C26.4485667,60.0262 26.4485667,69.181475 26.4485667,73.7591083 C24.4140583,73.7591083 20.34505,73.7591083 18.31055,73.7591083 C18.31055,69.181475 18.31055,60.0262 18.31055,55.4485667 C13.7329083,55.4485667 4.57763333,55.4485667 0,55.4485667 C0,53.4140583 0,49.34505 0,47.3105417 C4.57763333,47.3105417 13.7329083,47.3105417 18.31055,47.3105417 C18.31055,42.7329083 18.31055,33.5776333 18.31055,29 C20.34505,29 24.4140583,29 26.4485667,29 C26.4485667,33.5776333 26.4485667,42.7329083 26.4485667,47.3105417 C31.0262083,47.3105417 40.181475,47.3105417 44.7591167,47.3105417 C44.7591167,49.34505 44.7591167,53.4140583 44.7591167,55.4485667 C40.181475,55.4485667 31.0262083,55.4485667 26.4485667,55.4485667 Z" id="path_+_0" fill="#000000" fill-rule="nonzero"></path>
    </g>
</svg>
