<?xml version="1.0" encoding="UTF-8"?>
<svg width="29px" height="61px" viewBox="0 0 29 61" version="1.1" xmlns="http://www.w3.org/2000/svg" xmlns:xlink="http://www.w3.org/1999/xlink">
    <g id="Page-1" stroke="none" stroke-width="1" fill="none" fill-rule="evenodd">
        <g id="source0" transform="translate(-534.000000, -471.000000)" fill="#000000" fill-rule="nonzero">
            <g id="Group" transform="translate(425.000000, 370.500000) scale(-1, 1) rotate(-180.000000) translate(-425.000000, -370.500000) translate(0.000000, -0.000000)">
                <polygon id="Path" points="540.415458 211.320698 539.295233 209.88 551.776515 209.88 553.696492 211.960214 555.295996 214.521137 557.055737 217.399672 558.815477 221.08082 560.254745 225.56029 561.37497 230.199996 561.854249 235.640885 562.174722 241.080343 561.854249 246.521232 561.37497 251.481412 560.414981 256.281354 559.294756 259.961072 557.695252 263.320317 556.095748 266.200282 554.175771 268.600969 553.055546 269.88 534.976 269.88 534.976 241.078913 546.816336 241.078913 546.816336 262.67937 548.095367 259.799405 549.215592 256.279924 550.17558 251.640217 550.975332 246.519802 551.295805 241.399386 550.975332 236.27897 550.335817 230.679275 549.215592 226.518848 547.774894 222.678894 546.015153 219.479886 544.255412 216.439683 542.335435 213.87876"></polygon>
            </g>
        </g>
    </g>
</svg>
