<?xml version="1.0" encoding="UTF-8"?>
<svg width="64px" height="64px" viewBox="0 0 64 64" version="1.1" xmlns="http://www.w3.org/2000/svg" xmlns:xlink="http://www.w3.org/1999/xlink">
    <g id="FavIcon" stroke="none" stroke-width="1" fill="none" fill-rule="evenodd">
        <g id="Icon" transform="translate(0.000000, 10.000000)" fill="#7F7F7F" fill-rule="nonzero">
            <path d="M58.6666667,0 L5.33333333,0 C2.38777778,0 0,2.38777778 0,5.33333333 L0,37.3333333 C0,40.2788889 2.38777778,42.6666667 5.33333333,42.6666667 L58.6666667,42.6666667 C61.6122222,42.6666667 64,40.2788889 64,37.3333333 L64,5.33333333 C64,2.38777778 61.6122222,0 58.6666667,0 Z M59.5555556,37.3333333 C59.5555556,37.8234444 59.1567778,38.2222222 58.6666667,38.2222222 L5.33333333,38.2222222 C4.84322222,38.2222222 4.44444444,37.8234444 4.44444444,37.3333333 L4.44444444,5.33333333 C4.44444444,4.84322222 4.84322222,4.44444444 5.33333333,4.44444444 L58.6666667,4.44444444 C59.1567778,4.44444444 59.5555556,4.84322222 59.5555556,5.33333333 L59.5555556,37.3333333 Z M18.8888889,22.8888889 L18.8888889,19.7777778 C18.8888889,19.0414444 18.2918889,18.4444444 17.5555556,18.4444444 L14.4444444,18.4444444 C13.7081111,18.4444444 13.1111111,19.0414444 13.1111111,19.7777778 L13.1111111,22.8888889 C13.1111111,23.6252222 13.7081111,24.2222222 14.4444444,24.2222222 L17.5555556,24.2222222 C18.2918889,24.2222222 18.8888889,23.6252222 18.8888889,22.8888889 Z M29.5555556,22.8888889 L29.5555556,19.7777778 C29.5555556,19.0414444 28.9585556,18.4444444 28.2222222,18.4444444 L25.1111111,18.4444444 C24.3747778,18.4444444 23.7777778,19.0414444 23.7777778,19.7777778 L23.7777778,22.8888889 C23.7777778,23.6252222 24.3747778,24.2222222 25.1111111,24.2222222 L28.2222222,24.2222222 C28.9585556,24.2222222 29.5555556,23.6252222 29.5555556,22.8888889 Z M40.2222222,22.8888889 L40.2222222,19.7777778 C40.2222222,19.0414444 39.6252222,18.4444444 38.8888889,18.4444444 L35.7777778,18.4444444 C35.0414444,18.4444444 34.4444444,19.0414444 34.4444444,19.7777778 L34.4444444,22.8888889 C34.4444444,23.6252222 35.0414444,24.2222222 35.7777778,24.2222222 L38.8888889,24.2222222 C39.6252222,24.2222222 40.2222222,23.6252222 40.2222222,22.8888889 Z M50.8888889,22.8888889 L50.8888889,19.7777778 C50.8888889,19.0414444 50.2918889,18.4444444 49.5555556,18.4444444 L46.4444444,18.4444444 C45.7081111,18.4444444 45.1111111,19.0414444 45.1111111,19.7777778 L45.1111111,22.8888889 C45.1111111,23.6252222 45.7081111,24.2222222 46.4444444,24.2222222 L49.5555556,24.2222222 C50.2918889,24.2222222 50.8888889,23.6252222 50.8888889,22.8888889 Z M13.5555556,32 L13.5555556,28.8888889 C13.5555556,28.1525556 12.9585556,27.5555556 12.2222222,27.5555556 L9.11111111,27.5555556 C8.37477778,27.5555556 7.77777778,28.1525556 7.77777778,28.8888889 L7.77777778,32 C7.77777778,32.7363333 8.37477778,33.3333333 9.11111111,33.3333333 L12.2222222,33.3333333 C12.9585556,33.3333333 13.5555556,32.7363333 13.5555556,32 Z M56.2222222,32 L56.2222222,28.8888889 C56.2222222,28.1525556 55.6252222,27.5555556 54.8888889,27.5555556 L51.7777778,27.5555556 C51.0414444,27.5555556 50.4444444,28.1525556 50.4444444,28.8888889 L50.4444444,32 C50.4444444,32.7363333 51.0414444,33.3333333 51.7777778,33.3333333 L54.8888889,33.3333333 C55.6252222,33.3333333 56.2222222,32.7363333 56.2222222,32 Z M13.5555556,13.7777778 L13.5555556,10.6666667 C13.5555556,9.93033333 12.9585556,9.33333333 12.2222222,9.33333333 L9.11111111,9.33333333 C8.37477778,9.33333333 7.77777778,9.93033333 7.77777778,10.6666667 L7.77777778,13.7777778 C7.77777778,14.5141111 8.37477778,15.1111111 9.11111111,15.1111111 L12.2222222,15.1111111 C12.9585556,15.1111111 13.5555556,14.5141111 13.5555556,13.7777778 Z M24.2222222,13.7777778 L24.2222222,10.6666667 C24.2222222,9.93033333 23.6252222,9.33333333 22.8888889,9.33333333 L19.7777778,9.33333333 C19.0414444,9.33333333 18.4444444,9.93033333 18.4444444,10.6666667 L18.4444444,13.7777778 C18.4444444,14.5141111 19.0414444,15.1111111 19.7777778,15.1111111 L22.8888889,15.1111111 C23.6252222,15.1111111 24.2222222,14.5141111 24.2222222,13.7777778 Z M34.8888889,13.7777778 L34.8888889,10.6666667 C34.8888889,9.93033333 34.2918889,9.33333333 33.5555556,9.33333333 L30.4444444,9.33333333 C29.7081111,9.33333333 29.1111111,9.93033333 29.1111111,10.6666667 L29.1111111,13.7777778 C29.1111111,14.5141111 29.7081111,15.1111111 30.4444444,15.1111111 L33.5555556,15.1111111 C34.2918889,15.1111111 34.8888889,14.5141111 34.8888889,13.7777778 Z M45.5555556,13.7777778 L45.5555556,10.6666667 C45.5555556,9.93033333 44.9585556,9.33333333 44.2222222,9.33333333 L41.1111111,9.33333333 C40.3747778,9.33333333 39.7777778,9.93033333 39.7777778,10.6666667 L39.7777778,13.7777778 C39.7777778,14.5141111 40.3747778,15.1111111 41.1111111,15.1111111 L44.2222222,15.1111111 C44.9585556,15.1111111 45.5555556,14.5141111 45.5555556,13.7777778 Z M56.2222222,13.7777778 L56.2222222,10.6666667 C56.2222222,9.93033333 55.6252222,9.33333333 54.8888889,9.33333333 L51.7777778,9.33333333 C51.0414444,9.33333333 50.4444444,9.93033333 50.4444444,10.6666667 L50.4444444,13.7777778 C50.4444444,14.5141111 51.0414444,15.1111111 51.7777778,15.1111111 L54.8888889,15.1111111 C55.6252222,15.1111111 56.2222222,14.5141111 56.2222222,13.7777778 Z M45.3333333,31.3333333 L45.3333333,29.5555556 C45.3333333,28.8192222 44.7363333,28.2222222 44,28.2222222 L20,28.2222222 C19.2636667,28.2222222 18.6666667,28.8192222 18.6666667,29.5555556 L18.6666667,31.3333333 C18.6666667,32.0696667 19.2636667,32.6666667 20,32.6666667 L44,32.6666667 C44.7363333,32.6666667 45.3333333,32.0696667 45.3333333,31.3333333 Z" id="theIcon"></path>
        </g>
    </g>
</svg>
